<svg width="45" height="37" viewBox="0 0 45 37" fill="none" xmlns="http://www.w3.org/2000/svg">
<path d="M34.6957 36.6572H10.3042C7.61921 36.6572 5.43445 34.4724 5.43445 31.7874V11.9023H7.57218V31.7874C7.57218 33.2924 8.79923 34.5195 10.3042 34.5195H34.7C36.2049 34.5195 37.4277 33.2924 37.4277 31.7874V11.9023H39.5654V31.7874C39.5654 34.4724 37.3807 36.6572 34.7 36.6572H34.6957Z" fill="white"/>
<path d="M43.9307 17.1483C43.7084 17.1483 43.4861 17.0799 43.298 16.9388L24.7083 3.20172C23.3872 2.22264 21.6128 2.22264 20.2917 3.20172L1.7063 16.9388C1.23173 17.2894 0.560478 17.191 0.209891 16.7164C-0.140697 16.2419 -0.0423614 15.5706 0.432215 15.22L19.0219 1.48299C21.1041 -0.0561781 23.9002 -0.0561781 25.9824 1.48299L44.5678 15.22C45.0424 15.5706 45.1407 16.2419 44.7901 16.7164C44.5806 16.9986 44.2557 17.1483 43.9307 17.1483Z" fill="white"/>
<path d="M30.4631 30.1371C31.9696 30.1371 33.1908 28.9159 33.1908 27.4094C33.1908 25.9029 31.9696 24.6816 30.4631 24.6816C28.9566 24.6816 27.7354 25.9029 27.7354 27.4094C27.7354 28.9159 28.9566 30.1371 30.4631 30.1371Z" fill="#5CBDFF"/>
</svg>
