<svg width="45" height="45" viewBox="0 0 45 45" fill="none" xmlns="http://www.w3.org/2000/svg">
<path d="M18.5545 37.109C8.3218 37.109 0 28.7872 0 18.5545C0 8.3218 8.3218 0 18.5545 0C28.7872 0 37.109 8.3218 37.109 18.5545C37.109 28.7872 28.7872 37.109 18.5545 37.109ZM18.5545 2.1327C9.49905 2.1327 2.1327 9.49905 2.1327 18.5545C2.1327 27.61 9.49905 34.9763 18.5545 34.9763C27.61 34.9763 34.9763 27.61 34.9763 18.5545C34.9763 9.49905 27.61 2.1327 18.5545 2.1327Z" fill="white"/>
<path d="M43.5071 45C43.2341 45 42.9611 44.8934 42.7521 44.6844L29.9815 31.8498C29.5677 31.4318 29.5677 30.7579 29.9815 30.3398C30.3995 29.9261 31.0734 29.9261 31.4914 30.3398L44.262 43.1744C44.6758 43.5925 44.6758 44.2664 44.262 44.6844C44.053 44.8934 43.78 44.9958 43.5113 44.9958L43.5071 45Z" fill="white"/>
</svg>
