<svg width="45" height="35" viewBox="0 0 45 35" fill="none" xmlns="http://www.w3.org/2000/svg">
<path d="M44.9958 21.1542H42.8599V6.48033C42.8599 5.12188 41.7535 4.01546 40.395 4.01546H21.5005V1.87952H40.395C42.9325 1.87952 44.9958 3.94284 44.9958 6.48033V21.1542Z" fill="white"/>
<path d="M40.3949 34.081H4.60082C2.06332 34.081 0 32.0176 0 29.4801V4.64342C0 2.10592 2.06332 0.0426025 4.60082 0.0426025H19.0782C19.8343 0.0426025 20.5477 0.337363 21.0817 0.871348L27.3529 7.14247C27.4853 7.2749 27.6604 7.34752 27.8484 7.34752H40.3992C42.9367 7.34752 45 9.41084 45 11.9483V29.4844C45 32.0219 42.9367 34.0852 40.3992 34.0852L40.3949 34.081ZM4.60082 2.17854C3.24236 2.17854 2.13594 3.28496 2.13594 4.64342V29.4801C2.13594 30.8386 3.24236 31.945 4.60082 31.945H40.3949C41.7534 31.945 42.8598 30.8386 42.8598 29.4801V11.9441C42.8598 10.5856 41.7534 9.47919 40.3949 9.47919H27.8441C27.088 9.47919 26.3746 9.18443 25.8406 8.65045L19.5695 2.37932C19.4371 2.24689 19.2619 2.17427 19.0739 2.17427H4.59654L4.60082 2.17854Z" fill="white"/>
<path d="M19.262 26.9982C18.8006 26.9982 18.3392 26.8828 17.9163 26.6564C17.0876 26.2079 16.592 25.4005 16.592 24.5034V14.4687C16.592 13.5674 17.0876 12.76 17.9206 12.3114C18.8305 11.8202 19.9327 11.8629 20.7913 12.4268L28.4892 17.4676C29.2026 17.9332 29.6298 18.7022 29.6256 19.5138C29.6256 20.3297 29.1941 21.0944 28.4764 21.56L20.7785 26.5539C20.3214 26.8529 19.7917 27.0024 19.2662 27.0024L19.262 26.9982ZM19.262 14.1056C19.1338 14.1056 19.0185 14.1398 18.933 14.1868C18.839 14.238 18.728 14.3278 18.728 14.4645V24.4991C18.728 24.6401 18.8561 24.7341 18.9373 24.7768C19.0996 24.8665 19.3773 24.9135 19.6165 24.7597L27.3145 19.7659C27.4255 19.6932 27.4896 19.6035 27.4896 19.5095C27.4896 19.4156 27.4298 19.3259 27.3187 19.2532L19.6208 14.2124C19.5055 14.1355 19.3816 14.1099 19.2662 14.1099L19.262 14.1056Z" fill="#5CBDFF"/>
</svg>
