<svg width="45" height="45" viewBox="0 0 45 45" fill="none" xmlns="http://www.w3.org/2000/svg">
<path d="M41.7858 21.4286H26.7858C25.0115 21.4286 23.5715 19.9886 23.5715 18.2143V3.21429C23.5715 1.44 25.0115 0 26.7858 0H41.7858C43.5601 0 45.0001 1.44 45.0001 3.21429V18.2143C45.0001 19.9886 43.5601 21.4286 41.7858 21.4286ZM26.7858 2.14286C26.1944 2.14286 25.7144 2.62286 25.7144 3.21429V18.2143C25.7144 18.8057 26.1944 19.2857 26.7858 19.2857H41.7858C42.3772 19.2857 42.8572 18.8057 42.8572 18.2143V3.21429C42.8572 2.62286 42.3772 2.14286 41.7858 2.14286H26.7858Z" fill="white"/>
<path d="M39.643 45H28.9287C25.9758 45 23.5715 42.5958 23.5715 39.6429V28.9286C23.5715 25.9758 25.9758 23.5715 28.9287 23.5715H39.643C42.5958 23.5715 45.0001 25.9758 45.0001 28.9286V39.6429C45.0001 42.5958 42.5958 45 39.643 45ZM28.9287 25.7143C27.1544 25.7143 25.7144 27.1543 25.7144 28.9286V39.6429C25.7144 41.4172 27.1544 42.8572 28.9287 42.8572H39.643C41.4172 42.8572 42.8572 41.4172 42.8572 39.6429V28.9286C42.8572 27.1543 41.4172 25.7143 39.643 25.7143H28.9287Z" fill="#5CBDFF"/>
<path d="M18.2143 21.4286H3.21429C1.44 21.4286 0 19.9886 0 18.2143V3.21429C0 1.44 1.44 0 3.21429 0H18.2143C19.9886 0 21.4286 1.44 21.4286 3.21429V18.2143C21.4286 19.9886 19.9886 21.4286 18.2143 21.4286ZM3.21429 2.14286C2.62286 2.14286 2.14286 2.62286 2.14286 3.21429V18.2143C2.14286 18.8057 2.62286 19.2857 3.21429 19.2857H18.2143C18.8057 19.2857 19.2857 18.8057 19.2857 18.2143V3.21429C19.2857 2.62286 18.8057 2.14286 18.2143 2.14286H3.21429Z" fill="white"/>
<path d="M18.2143 45H3.21429C1.44 45 0 43.56 0 41.7858V26.7858C0 25.0115 1.44 23.5715 3.21429 23.5715H18.2143C19.9886 23.5715 21.4286 25.0115 21.4286 26.7858V41.7858C21.4286 43.56 19.9886 45 18.2143 45ZM3.21429 25.7143C2.62286 25.7143 2.14286 26.1943 2.14286 26.7858V41.7858C2.14286 42.3772 2.62286 42.8572 3.21429 42.8572H18.2143C18.8057 42.8572 19.2857 42.3772 19.2857 41.7858V26.7858C19.2857 26.1943 18.8057 25.7143 18.2143 25.7143H3.21429Z" fill="white"/>
</svg>
