<svg width="21" height="35" viewBox="0 0 21 35" fill="none" xmlns="http://www.w3.org/2000/svg">
<path d="M19.1679 0.00667557C19.6214 0.00667561 20.0749 0.19342 20.4017 0.55357C21.022 1.23385 20.9686 2.28762 20.2817 2.90788L4.14831 17.5006L20.2817 32.0933C20.9619 32.7136 21.0153 33.7673 20.4017 34.4476C19.7815 35.1346 18.7277 35.1879 18.0474 34.5677L0.546844 18.7344C0.200035 18.421 -5.38241e-05 17.9675 -5.37833e-05 17.5006C-5.37424e-05 17.0337 0.200035 16.5802 0.546844 16.2667L18.0474 0.433517C18.3676 0.146732 18.7677 3.63405e-06 19.1679 3.66904e-06L19.1679 0.00667557Z" fill="#BBBBBB"/>
</svg>
