<svg width="45" height="42" viewBox="0 0 45 42" fill="none" xmlns="http://www.w3.org/2000/svg">
<path d="M32.7297 32.5422C32.4394 32.5422 32.149 32.4226 31.9398 32.1921C31.5428 31.7566 31.5769 31.082 32.0167 30.685L42.3445 21.3434L32.0167 12.0018C31.5812 11.6048 31.5471 10.9302 31.9398 10.4947C32.3369 10.055 33.0115 10.0208 33.447 10.4179L44.65 20.5535C44.872 20.7542 45.0001 21.0445 45.0001 21.3434C45.0001 21.6423 44.872 21.9326 44.65 22.1332L33.447 32.2689C33.242 32.4525 32.9859 32.5464 32.7297 32.5464V32.5422Z" fill="#5CBDFF"/>
<path d="M43.9327 22.4065H13.3208C12.7316 22.4065 12.2534 21.9283 12.2534 21.3392C12.2534 20.75 12.7316 20.2718 13.3208 20.2718H43.9327C44.5219 20.2718 45.0001 20.75 45.0001 21.3392C45.0001 21.9283 44.5219 22.4065 43.9327 22.4065Z" fill="#5CBDFF"/>
<path d="M20.9801 41.7856H5.33681C2.39516 41.7856 0 39.3904 0 36.4487V6.22957C0 3.28792 2.39516 0.892761 5.33681 0.892761H20.9801C23.9217 0.892761 26.3169 3.28792 26.3169 6.22957V13.3382C26.3169 13.9274 25.8387 14.4056 25.2495 14.4056C24.6603 14.4056 24.1822 13.9274 24.1822 13.3382V6.22957C24.1822 4.46202 22.7476 3.02749 20.9801 3.02749H5.33681C3.56926 3.02749 2.13473 4.46202 2.13473 6.22957V36.4487C2.13473 38.2163 3.56926 39.6508 5.33681 39.6508H20.9801C22.7476 39.6508 24.1822 38.2163 24.1822 36.4487V29.2846C24.1822 28.6954 24.6603 28.2172 25.2495 28.2172C25.8387 28.2172 26.3169 28.6954 26.3169 29.2846V36.4487C26.3169 39.3904 23.9217 41.7856 20.9801 41.7856Z" fill="white"/>
</svg>
