<svg width="30" height="25" viewBox="0 0 30 25" fill="none" xmlns="http://www.w3.org/2000/svg">
<path d="M14.6176 0.00747087C14.6176 0.0115969 14.6142 0.0149416 14.61 0.0149431C6.54356 0.0178269 0 4.6635 0 10.3992C0 13.7311 2.22619 16.6895 5.66369 18.5871C5.95833 18.7515 6.10566 19.0503 6.04018 19.3491L4.95982 24.7878C4.92708 24.9521 5.12351 25.0567 5.27083 24.9671L11.6057 20.7536C11.7693 20.649 11.9658 20.6042 12.1786 20.6191C12.9807 20.7088 13.7827 20.7685 14.6176 20.7685C22.6875 20.7685 29.2351 16.1218 29.2351 10.3843C29.2351 4.64856 22.6916 0.00288502 14.6251 1.3432e-06C14.6209 -1.31814e-07 14.6176 0.00334482 14.6176 0.00747087Z" fill="#191919"/>
</svg>
