<svg width="52" height="81" viewBox="0 0 52 81" fill="none" xmlns="http://www.w3.org/2000/svg">
<g clip-path="url(#clip0_1_7)">
<path d="M47.6268 39.1221L21.4021 19.7229V10.7933C21.4021 4.83539 16.6152 0 10.7011 0C4.78694 0 0 4.83539 0 10.7933V25.062C0 25.1484 0 25.2275 0 25.3138V70.2067C0 74.265 2.25436 77.9779 5.84278 79.8199C7.37659 80.6114 9.04596 81 10.7011 81C12.9197 81 15.1242 80.3092 16.9861 78.9421L47.584 56.5568C50.352 54.5349 51.9929 51.2969 52 47.8502C52.0071 44.4036 50.3806 41.1584 47.6268 39.1149V39.1221ZM28.5147 49.4188L19.6186 55.2328C18.3987 56.0315 16.6865 55.2472 16.6865 53.8873V42.1874C16.6865 40.8274 18.4058 40.0431 19.6257 40.849L28.5219 46.7277C29.5278 47.3969 29.5278 48.7497 28.5147 49.4117V49.4188Z" fill="url(#paint0_linear_1_7)"/>
</g>
<defs>
<linearGradient id="paint0_linear_1_7" x1="-6.0562e-07" y1="8.76674" x2="51.5055" y2="81.2005" gradientUnits="userSpaceOnUse">
<stop stop-color="#68BCFF"/>
<stop offset="1" stop-color="#1F8EE6"/>
</linearGradient>
<clipPath id="clip0_1_7">
<rect width="52" height="81" fill="white"/>
</clipPath>
</defs>
</svg>
