<svg width="136" height="32" viewBox="0 0 136 32" fill="none" xmlns="http://www.w3.org/2000/svg">
<g clip-path="url(#clip0_13_458)">
<path d="M29.8947 0H2.04494C0.915552 0 0 0.917281 0 2.0488V29.9512C0 31.0827 0.915552 32 2.04494 32H29.8947C31.0241 32 31.9397 31.0827 31.9397 29.9512V2.0488C31.9397 0.917281 31.0241 0 29.8947 0Z" fill="url(#paint0_linear_13_458)"/>
<path d="M22.1187 15.3701L14.7344 9.94617V7.44856C14.7344 5.78214 13.3845 4.42969 11.7213 4.42969C10.058 4.42969 8.70808 5.78214 8.70808 7.44856V11.4395C8.70808 11.4637 8.70808 11.4858 8.70808 11.5099V24.0664C8.70808 25.2015 9.34286 26.24 10.3533 26.7552C10.7852 26.9766 11.2552 27.0853 11.7213 27.0853C12.346 27.0853 12.9667 26.8921 13.491 26.5097L22.1067 20.2486C22.8861 19.683 23.3481 18.7774 23.3501 17.8133C23.3521 16.8493 22.8941 15.9416 22.1187 15.3701ZM16.7372 18.2501L14.2322 19.8762C13.8887 20.0996 13.4066 19.8803 13.4066 19.4999V16.2274C13.4066 15.847 13.8907 15.6277 14.2343 15.8531L16.7392 17.4974C17.0224 17.6845 17.0224 18.0629 16.7372 18.2481V18.2501Z" fill="white"/>
<path d="M51.7744 22.7603C53.0962 22.7603 53.6687 23.7102 53.6687 24.6843C53.6687 25.6584 52.9957 26.6828 51.7744 26.6828H39.1833C37.962 26.6828 37.2891 25.6584 37.2891 24.6843C37.2891 23.7102 37.8616 22.7603 39.1833 22.7603H39.7076V12.2949C39.7076 10.8217 40.6558 10.0971 42.1021 10.0971C43.5484 10.0971 44.4464 10.8458 44.4464 12.2949V22.7603H46.2904V12.2949C46.2904 10.8217 47.1884 10.0971 48.6347 10.0971C50.081 10.0971 51.0292 10.8458 51.0292 12.2949V22.7603H51.7764H51.7744ZM39.4847 9.19751C38.2633 9.19751 37.5643 8.14896 37.5643 7.17487C37.5643 6.20078 38.1629 5.10191 39.4847 5.10191H51.1276C52.4494 5.10191 53.048 6.20078 53.048 7.17487C53.048 8.14896 52.3489 9.19751 51.1276 9.19751H39.4847ZM60.2776 12.9691C61.7982 12.9691 62.2482 14.1424 62.2482 15.1427C62.2482 16.1429 61.7741 17.3163 60.2776 17.3163H59.3797V27.683H54.3939V6.6999C54.3939 5.07575 55.565 4.22644 56.8868 4.22644C58.2085 4.22644 59.3797 5.07575 59.3797 6.6999V12.9691H60.2776Z" fill="white"/>
<path d="M63.0678 9.87172C63.0678 6.24908 66.0589 4.37738 70.1488 4.37738C74.2386 4.37738 77.2538 6.22493 77.2538 9.87172V10.721C77.2538 14.3678 74.2366 16.2174 70.1729 16.2174C66.1091 16.2174 63.0678 14.3698 63.0678 10.721V9.87172ZM67.4309 27.681C65.163 27.681 63.9396 26.2078 63.9396 24.4589V23.8591C63.9396 22.1605 65.1609 21.0113 67.4309 21.0113H80.0219V20.4116C80.0219 20.1117 79.9476 19.9869 79.6222 19.9869H65.5848C64.6125 19.9869 64.2128 19.2886 64.2128 18.5379C64.2128 17.8375 64.6367 17.0647 65.5848 17.0647H82.1151C84.3087 17.0647 85.0821 17.7147 85.0821 19.6368V23.6841H69.749C69.3995 23.6841 69.2247 23.8833 69.2247 24.1329V24.2576C69.2247 24.483 69.3995 24.6823 69.749 24.6823H84.3087C85.305 24.6823 85.7289 25.4813 85.7289 26.232C85.7289 26.9303 85.3291 27.681 84.3087 27.681H67.4289H67.4309ZM67.9311 10.6707C67.9311 11.844 68.9033 12.5444 70.1508 12.5444C71.3982 12.5444 72.4187 11.8461 72.4187 10.6707V9.92204C72.4187 8.7487 71.3962 8.02418 70.1508 8.04833C68.9033 8.07248 67.9311 8.77286 67.9311 9.92204V10.6707ZM80.0722 16.316V6.6999C80.0722 5.07575 81.2433 4.22644 82.5651 4.22644C83.8868 4.22644 85.058 5.07575 85.058 6.6999V16.316H80.0722Z" fill="white"/>
<path d="M108.593 23.0863C110.089 23.0863 110.688 24.1107 110.688 25.1351C110.688 26.1595 110.065 27.1839 108.593 27.1839H89.4451C87.9747 27.1839 87.35 26.2098 87.35 25.1351C87.35 24.0604 87.9486 23.0863 89.4451 23.0863H96.4759V18.7894H92.163C89.1719 18.7894 88.5974 17.8395 88.5974 14.9917V6.89913C88.5974 5.27498 89.8449 4.67523 91.1647 4.67523C92.4121 4.67523 93.7078 5.37359 93.7078 6.94743V7.97183H104.304V6.89712C104.304 5.27297 105.525 4.67322 106.847 4.67322C108.169 4.67322 109.39 5.29712 109.39 6.89712V18.7874H101.562V23.0843H108.593V23.0863ZM93.7098 14.0176C93.7098 14.5167 93.8846 14.7663 94.4832 14.7663H104.306V11.844H93.7098V14.0176Z" fill="#3D8EEE"/>
<path d="M133.524 23.0864C135.02 23.0864 135.619 24.1108 135.619 25.1352C135.619 26.1596 134.996 27.184 133.524 27.184H114.376C112.906 27.184 112.281 26.2099 112.281 25.1352C112.281 24.0604 112.88 23.0864 114.376 23.0864H119.537V15.517C119.537 13.8929 120.758 13.3938 122.08 13.3938C123.402 13.3938 124.623 13.9191 124.623 15.517V23.0864H133.524ZM115.298 9.27202C113.802 9.27202 113.105 8.149 113.105 7.12459C113.105 6.10019 113.778 4.97717 115.298 4.97717H130.531C133.474 4.97717 134.37 6.10019 134.37 8.5495V11.2967C134.37 15.193 133.845 18.1414 133.198 19.7153C132.526 21.2147 130.73 21.7641 129.434 21.1402C128.486 20.6411 128.088 19.7153 128.462 18.5923C129.135 16.7689 129.458 14.5208 129.458 11.3973V9.89793C129.458 9.54774 129.233 9.27403 128.835 9.27403H115.298V9.27202Z" fill="#3D8EEE"/>
</g>
<defs>
<linearGradient id="paint0_linear_13_458" x1="15.9698" y1="0" x2="15.9698" y2="32" gradientUnits="userSpaceOnUse">
<stop stop-color="#1F8EE6"/>
<stop offset="1" stop-color="#1371D4"/>
</linearGradient>
<clipPath id="clip0_13_458">
<rect width="135.619" height="32" fill="white"/>
</clipPath>
</defs>
</svg>
